{
	"asset":{
		"generator":"Khronos glTF Blender I/O v4.1.63",
		"version":"2.0"
	},
	"scene":0,
	"scenes":[
		{
			"name":"Scene",
			"nodes":[
				4
			]
		}
	],
	"nodes":[
		{
			"mesh":0,
			"name":"Cube",
			"translation":[
				5.967597961425781,
				-2.916775703430176,
				-8.064846992492676
			]
		},
		{
			"mesh":1,
			"name":"Cube.001",
			"translation":[
				5.939943313598633,
				-2.7577333450317383,
				7.91391658782959
			]
		},
		{
			"mesh":2,
			"name":"Cube.002",
			"translation":[
				-6.046363830566406,
				-2.769151449203491,
				-8.080694198608398
			]
		},
		{
			"mesh":3,
			"name":"Cube.003",
			"translation":[
				-6.06170129776001,
				-2.3689844608306885,
				7.932726860046387
			]
		},
		{
			"children":[
				0,
				1,
				2,
				3
			],
			"mesh":4,
			"name":"Cube.004",
			"rotation":[
				1,
				0,
				0,
				7.549790126404332e-08
			],
			"translation":[
				3.5497264862060547,
				-3.814171552658081,
				-8.562557220458984
			]
		}
	],
	"materials":[
		{
			"doubleSided":true,
			"name":"Material.001",
			"pbrMetallicRoughness":{
				"baseColorFactor":[
					0.800000011920929,
					0.800000011920929,
					0.800000011920929,
					1
				],
				"metallicRoughnessTexture":{
					"index":0
				},
				"roughnessFactor":0.5
			}
		}
	],
	"meshes":[
		{
			"name":"Cube.002",
			"primitives":[
				{
					"attributes":{
						"POSITION":0,
						"NORMAL":1,
						"TEXCOORD_0":2
					},
					"indices":3
				}
			]
		},
		{
			"name":"Cube.003",
			"primitives":[
				{
					"attributes":{
						"POSITION":4,
						"NORMAL":5,
						"TEXCOORD_0":6
					},
					"indices":7
				}
			]
		},
		{
			"name":"Cube.004",
			"primitives":[
				{
					"attributes":{
						"POSITION":8,
						"NORMAL":9,
						"TEXCOORD_0":10
					},
					"indices":11
				}
			]
		},
		{
			"name":"Cube.005",
			"primitives":[
				{
					"attributes":{
						"POSITION":12,
						"NORMAL":13,
						"TEXCOORD_0":14
					},
					"indices":15
				}
			]
		},
		{
			"name":"Cube.006",
			"primitives":[
				{
					"attributes":{
						"POSITION":16,
						"NORMAL":17,
						"TEXCOORD_0":18
					},
					"indices":19,
					"material":0
				}
			]
		}
	],
	"textures":[
		{
			"sampler":0,
			"source":0
		}
	],
	"images":[
		{
			"mimeType":"image/png",
			"name":"Cube.004 Metallic",
			"uri":"../../../../blender%20texture/TableFinalTexture.png"
		}
	],
	"accessors":[
		{
			"bufferView":0,
			"componentType":5126,
			"count":100,
			"max":[
				0.49420595169067383,
				2.8973946571350098,
				0.4984518885612488
			],
			"min":[
				-0.49420595169067383,
				-0.8973947763442993,
				-0.49845170974731445
			],
			"type":"VEC3"
		},
		{
			"bufferView":1,
			"componentType":5126,
			"count":100,
			"type":"VEC3"
		},
		{
			"bufferView":2,
			"componentType":5126,
			"count":100,
			"type":"VEC2"
		},
		{
			"bufferView":3,
			"componentType":5123,
			"count":150,
			"type":"SCALAR"
		},
		{
			"bufferView":4,
			"componentType":5126,
			"count":60,
			"max":[
				0.5161709785461426,
				2.0564396381378174,
				0.5151849389076233
			],
			"min":[
				-0.5048661231994629,
				-1.0564396381378174,
				-0.5151848793029785
			],
			"type":"VEC3"
		},
		{
			"bufferView":5,
			"componentType":5126,
			"count":60,
			"type":"VEC3"
		},
		{
			"bufferView":6,
			"componentType":5126,
			"count":60,
			"type":"VEC2"
		},
		{
			"bufferView":7,
			"componentType":5123,
			"count":90,
			"type":"SCALAR"
		},
		{
			"bufferView":8,
			"componentType":5126,
			"count":24,
			"max":[
				0.6032965183258057,
				2.962512731552124,
				1.453743577003479
			],
			"min":[
				-0.5605430603027344,
				-1.0450191497802734,
				-0.49072742462158203
			],
			"type":"VEC3"
		},
		{
			"bufferView":9,
			"componentType":5126,
			"count":24,
			"type":"VEC3"
		},
		{
			"bufferView":10,
			"componentType":5126,
			"count":24,
			"type":"VEC2"
		},
		{
			"bufferView":11,
			"componentType":5123,
			"count":36,
			"type":"SCALAR"
		},
		{
			"bufferView":12,
			"componentType":5126,
			"count":24,
			"max":[
				0.5071682929992676,
				1.4451885223388672,
				0.49037647247314453
			],
			"min":[
				-0.5071682929992676,
				-1.4451885223388672,
				-0.49037647247314453
			],
			"type":"VEC3"
		},
		{
			"bufferView":13,
			"componentType":5126,
			"count":24,
			"type":"VEC3"
		},
		{
			"bufferView":14,
			"componentType":5126,
			"count":24,
			"type":"VEC2"
		},
		{
			"bufferView":15,
			"componentType":5123,
			"count":36,
			"type":"SCALAR"
		},
		{
			"bufferView":16,
			"componentType":5126,
			"count":480,
			"max":[
				6.937694072723389,
				1.3237897157669067,
				8.790557861328125
			],
			"min":[
				-6.937694072723389,
				-1.3237897157669067,
				-8.790557861328125
			],
			"type":"VEC3"
		},
		{
			"bufferView":17,
			"componentType":5126,
			"count":480,
			"type":"VEC3"
		},
		{
			"bufferView":18,
			"componentType":5126,
			"count":480,
			"type":"VEC2"
		},
		{
			"bufferView":19,
			"componentType":5123,
			"count":708,
			"type":"SCALAR"
		}
	],
	"bufferViews":[
		{
			"buffer":0,
			"byteLength":1200,
			"byteOffset":0,
			"target":34962
		},
		{
			"buffer":0,
			"byteLength":1200,
			"byteOffset":1200,
			"target":34962
		},
		{
			"buffer":0,
			"byteLength":800,
			"byteOffset":2400,
			"target":34962
		},
		{
			"buffer":0,
			"byteLength":300,
			"byteOffset":3200,
			"target":34963
		},
		{
			"buffer":0,
			"byteLength":720,
			"byteOffset":3500,
			"target":34962
		},
		{
			"buffer":0,
			"byteLength":720,
			"byteOffset":4220,
			"target":34962
		},
		{
			"buffer":0,
			"byteLength":480,
			"byteOffset":4940,
			"target":34962
		},
		{
			"buffer":0,
			"byteLength":180,
			"byteOffset":5420,
			"target":34963
		},
		{
			"buffer":0,
			"byteLength":288,
			"byteOffset":5600,
			"target":34962
		},
		{
			"buffer":0,
			"byteLength":288,
			"byteOffset":5888,
			"target":34962
		},
		{
			"buffer":0,
			"byteLength":192,
			"byteOffset":6176,
			"target":34962
		},
		{
			"buffer":0,
			"byteLength":72,
			"byteOffset":6368,
			"target":34963
		},
		{
			"buffer":0,
			"byteLength":288,
			"byteOffset":6440,
			"target":34962
		},
		{
			"buffer":0,
			"byteLength":288,
			"byteOffset":6728,
			"target":34962
		},
		{
			"buffer":0,
			"byteLength":192,
			"byteOffset":7016,
			"target":34962
		},
		{
			"buffer":0,
			"byteLength":72,
			"byteOffset":7208,
			"target":34963
		},
		{
			"buffer":0,
			"byteLength":5760,
			"byteOffset":7280,
			"target":34962
		},
		{
			"buffer":0,
			"byteLength":5760,
			"byteOffset":13040,
			"target":34962
		},
		{
			"buffer":0,
			"byteLength":3840,
			"byteOffset":18800,
			"target":34962
		},
		{
			"buffer":0,
			"byteLength":1416,
			"byteOffset":22640,
			"target":34963
		}
	],
	"samplers":[
		{
			"magFilter":9729,
			"minFilter":9987
		}
	],
	"buffers":[
		{
			"byteLength":24056,
			"uri":"PokerTable.bin"
		}
	]
}
